<svg width="552" height="552" viewBox="0 0 552 552" fill="none" xmlns="http://www.w3.org/2000/svg">
<g clip-path="url(#clip0_83_55)">
<mask id="mask0_83_55" style="mask-type:luminance" maskUnits="userSpaceOnUse" x="0" y="0" width="552" height="552">
<path d="M0.859375 0.729248H551.594V551.464H0.859375V0.729248Z" fill="white"/>
</mask>
<g mask="url(#mask0_83_55)">
<path fill-rule="evenodd" clip-rule="evenodd" d="M276.125 0.729248C428.146 0.729248 551.385 123.974 551.385 275.995C551.385 428.021 428.146 551.261 276.125 551.261C124.099 551.255 0.859375 428.021 0.859375 275.995C0.859375 123.974 124.099 0.729248 276.125 0.729248Z" fill="#B83330"/>
</g>
<path fill-rule="evenodd" clip-rule="evenodd" d="M212.927 218.114C223.974 209.812 218.542 213.87 229.594 205.573C239.281 198.312 236.656 191.109 228.364 179.594C211.406 156.052 205.667 147.474 188.802 123.859C178.776 109.818 165.672 120.766 162.213 124.302C73.3905 215.026 130.536 285.016 201.875 356.354C269.766 424.245 340.088 476.078 427.963 390.052C431.495 386.594 442.443 373.484 428.406 363.463C404.792 346.604 396.213 340.859 372.672 323.896C361.156 315.604 353.958 312.979 346.687 322.661C338.391 333.719 342.458 328.292 334.146 339.333C322.797 354.604 302.078 372.958 244.495 314.088C177.849 245.963 197.016 229.948 212.927 218.114Z" fill="white"/>
</g>
<defs>
<clipPath id="clip0_83_55">
<rect width="552" height="552" fill="white"/>
</clipPath>
</defs>
</svg>
