<svg width="574" height="574" viewBox="0 0 574 574" fill="none" xmlns="http://www.w3.org/2000/svg">
<g clip-path="url(#clip0_83_70)">
<mask id="mask0_83_70" style="mask-type:luminance" maskUnits="userSpaceOnUse" x="0" y="0" width="574" height="574">
<path d="M0.760376 0.411377H573.484V573.13H0.760376V0.411377Z" fill="white"/>
</mask>
<g mask="url(#mask0_83_70)">
<path d="M573.625 286.838C573.625 291.531 573.51 296.213 573.276 300.896C573.047 305.578 572.703 310.25 572.245 314.917C571.786 319.583 571.214 324.234 570.521 328.87C569.833 333.505 569.036 338.125 568.12 342.719C567.203 347.318 566.177 351.891 565.042 356.437C563.901 360.984 562.651 365.5 561.292 369.99C559.927 374.474 558.458 378.922 556.88 383.338C555.302 387.75 553.615 392.12 551.818 396.453C550.026 400.786 548.125 405.068 546.125 409.307C544.12 413.542 542.01 417.729 539.802 421.865C537.594 426 535.281 430.073 532.875 434.094C530.464 438.115 527.953 442.073 525.349 445.974C522.745 449.87 520.047 453.703 517.255 457.469C514.464 461.234 511.578 464.927 508.604 468.552C505.635 472.172 502.573 475.724 499.422 479.198C496.276 482.667 493.047 486.062 489.729 489.38C486.417 492.693 483.021 495.922 479.547 499.073C476.073 502.219 472.526 505.281 468.901 508.255C465.281 511.229 461.583 514.109 457.818 516.906C454.052 519.698 450.224 522.396 446.323 525C442.427 527.604 438.469 530.109 434.448 532.521C430.427 534.932 426.349 537.24 422.214 539.448C418.083 541.661 413.896 543.766 409.656 545.771C405.422 547.776 401.135 549.672 396.807 551.469C392.474 553.26 388.104 554.948 383.687 556.526C379.276 558.109 374.823 559.578 370.339 560.937C365.854 562.297 361.339 563.547 356.792 564.687C352.245 565.828 347.672 566.854 343.073 567.766C338.474 568.682 333.859 569.484 329.219 570.172C324.583 570.859 319.932 571.432 315.266 571.891C310.604 572.354 305.927 572.698 301.25 572.927C296.568 573.156 291.88 573.271 287.193 573.271C282.505 573.271 277.823 573.156 273.141 572.927C268.458 572.698 263.781 572.354 259.12 571.891C254.453 571.432 249.802 570.859 245.167 570.172C240.526 569.484 235.911 568.682 231.312 567.766C226.714 566.854 222.146 565.828 217.594 564.687C213.047 563.547 208.531 562.297 204.047 560.937C199.562 559.578 195.109 558.109 190.698 556.526C186.281 554.948 181.911 553.26 177.583 551.469C173.25 549.672 168.964 547.776 164.729 545.771C160.49 543.766 156.307 541.661 152.172 539.448C148.036 537.24 143.958 534.932 139.937 532.521C135.917 530.109 131.958 527.604 128.062 525C124.161 522.396 120.333 519.698 116.568 516.906C112.802 514.109 109.109 511.229 105.484 508.255C101.859 505.281 98.3125 502.219 94.8385 499.073C91.3645 495.922 87.9687 492.693 84.6562 489.38C81.3437 486.062 78.1093 482.667 74.9635 479.198C71.8125 475.724 68.7552 472.172 65.7812 468.552C62.8073 464.927 59.9218 461.234 57.1302 457.469C54.3385 453.703 51.6406 449.87 49.0364 445.974C46.4323 442.073 43.9218 438.115 41.5156 434.094C39.1041 430.073 36.7916 426 34.5833 421.865C32.375 417.729 30.2656 413.542 28.2604 409.307C26.2604 405.068 24.3593 400.786 22.5677 396.453C20.7708 392.12 19.0833 387.75 17.5052 383.338C15.927 378.922 14.4583 374.474 13.0937 369.99C11.7343 365.5 10.4843 360.984 9.34892 356.437C8.20829 351.891 7.18225 347.318 6.26558 342.719C5.35413 338.125 4.55204 333.505 3.86454 328.87C3.17704 324.234 2.59892 319.583 2.14058 314.917C1.68225 310.25 1.3385 305.578 1.10933 300.896C0.87496 296.213 0.760376 291.531 0.760376 286.838C0.760376 282.151 0.87496 277.469 1.10933 272.786C1.3385 268.104 1.68225 263.432 2.14058 258.766C2.59892 254.099 3.17704 249.448 3.86454 244.812C4.55204 240.177 5.35413 235.557 6.26558 230.963C7.18225 226.365 8.20829 221.792 9.34892 217.245C10.4843 212.698 11.7343 208.182 13.0937 203.693C14.4583 199.208 15.927 194.76 17.5052 190.344C19.0833 185.932 20.7708 181.557 22.5677 177.229C24.3593 172.896 26.2604 168.615 28.2604 164.375C30.2656 160.141 32.375 155.953 34.5833 151.818C36.7916 147.682 39.1041 143.609 41.5156 139.588C43.9218 135.568 46.4323 131.604 49.0364 127.708C51.6406 123.812 54.3385 119.979 57.1302 116.213C59.9218 112.448 62.8073 108.755 65.7812 105.13C68.7552 101.505 71.8125 97.9583 74.9635 94.4843C78.1093 91.0103 81.3437 87.6197 84.6562 84.302C87.9687 80.9895 91.3645 77.7603 94.8385 74.6093C98.3125 71.4635 101.859 68.401 105.484 65.427C109.109 62.453 112.802 59.5676 116.568 56.776C120.333 53.9843 124.161 51.2864 128.062 48.6822C131.958 46.078 135.917 43.5728 139.937 41.1614C143.958 38.7499 148.036 36.4426 152.172 34.2343C156.307 32.0208 160.49 29.9166 164.729 27.9114C168.964 25.9062 173.25 24.0051 177.583 22.2135C181.911 20.4218 186.281 18.7343 190.698 17.1562C195.109 15.5728 199.562 14.1041 204.047 12.7447C208.531 11.3853 213.047 10.1353 217.594 8.99471C222.146 7.85409 226.714 6.82804 231.312 5.91659C235.911 4.99992 240.526 4.19784 245.167 3.51034C249.802 2.82284 254.453 2.24992 259.12 1.79159C263.781 1.32804 268.458 0.984294 273.141 0.755127C277.823 0.52596 282.505 0.411377 287.193 0.411377C291.88 0.411377 296.568 0.52596 301.25 0.755127C305.927 0.984294 310.604 1.32804 315.266 1.79159C319.932 2.24992 324.583 2.82284 329.219 3.51034C333.859 4.19784 338.474 4.99992 343.073 5.91659C347.672 6.82804 352.245 7.85409 356.792 8.99471C361.339 10.1353 365.854 11.3853 370.339 12.7447C374.823 14.1041 379.276 15.5728 383.687 17.1562C388.104 18.7343 392.474 20.4218 396.807 22.2135C401.135 24.0051 405.422 25.9062 409.656 27.9114C413.896 29.9166 418.083 32.0208 422.214 34.2343C426.349 36.4426 430.427 38.7499 434.448 41.1614C438.469 43.5728 442.427 46.078 446.323 48.6822C450.224 51.2864 454.052 53.9843 457.818 56.776C461.583 59.5676 465.281 62.453 468.901 65.427C472.526 68.401 476.073 71.4635 479.547 74.6093C483.021 77.7603 486.417 80.9895 489.729 84.302C493.047 87.6197 496.276 91.0103 499.422 94.4843C502.573 97.9583 505.635 101.505 508.604 105.13C511.578 108.755 514.464 112.448 517.255 116.213C520.047 119.979 522.745 123.812 525.349 127.708C527.953 131.604 530.464 135.568 532.875 139.588C535.281 143.609 537.594 147.682 539.802 151.818C542.01 155.953 544.12 160.141 546.125 164.375C548.125 168.615 550.026 172.896 551.818 177.229C553.615 181.557 555.302 185.932 556.88 190.344C558.458 194.76 559.927 199.208 561.292 203.693C562.651 208.182 563.901 212.698 565.042 217.245C566.177 221.792 567.203 226.365 568.12 230.963C569.036 235.557 569.833 240.177 570.521 244.812C571.214 249.448 571.786 254.099 572.245 258.766C572.703 263.432 573.047 268.104 573.276 272.786C573.51 277.469 573.625 282.151 573.625 286.838Z" fill="#B83330"/>
</g>
<mask id="mask1_83_70" style="mask-type:luminance" maskUnits="userSpaceOnUse" x="74" y="48" width="500" height="526">
<path d="M74.6666 48.6667H573.484V573.13H74.6666V48.6667Z" fill="white"/>
</mask>
<g mask="url(#mask1_83_70)">
<path d="M573.625 286.839C573.625 445.037 445.385 573.276 287.193 573.276C203.292 573.276 127.812 537.203 75.427 479.714C121.24 510.808 176.547 528.974 236.078 528.974C394.266 528.974 522.505 400.729 522.505 242.542C522.505 168.25 494.224 100.568 447.844 49.6772C523.75 101.182 573.625 188.188 573.625 286.839Z" fill="#B83330"/>
</g>
<path d="M209.781 421.333C207.734 421.323 205.703 421.12 203.693 420.724C201.682 420.328 199.729 419.745 197.828 418.979C195.932 418.214 194.12 417.271 192.396 416.162C190.677 415.052 189.073 413.792 187.594 412.375C186.042 410.891 184.651 409.266 183.432 407.5C182.208 405.734 181.177 403.865 180.338 401.886C179.5 399.906 178.87 397.865 178.448 395.761C178.026 393.656 177.823 391.526 177.833 389.38V184.302C177.823 182.156 178.026 180.026 178.448 177.922C178.87 175.818 179.5 173.776 180.344 171.802C181.182 169.823 182.208 167.953 183.432 166.188C184.651 164.422 186.042 162.797 187.594 161.313C189.073 159.901 190.677 158.635 192.396 157.526C194.12 156.417 195.932 155.474 197.828 154.708C199.729 153.943 201.682 153.359 203.693 152.964C205.703 152.568 207.734 152.365 209.781 152.354C215.474 152.37 220.781 153.807 225.703 156.662L403.318 259.203C404.526 259.901 405.682 260.672 406.786 261.521C407.896 262.37 408.937 263.287 409.927 264.276C410.911 265.261 411.828 266.307 412.677 267.412C413.526 268.521 414.302 269.677 415 270.886C415.693 272.094 416.312 273.339 416.844 274.63C417.38 275.917 417.823 277.234 418.187 278.583C418.547 279.927 418.818 281.292 419 282.677C419.182 284.057 419.271 285.448 419.271 286.839C419.271 288.234 419.182 289.625 419 291.005C418.818 292.391 418.547 293.755 418.187 295.099C417.823 296.448 417.38 297.766 416.844 299.052C416.312 300.344 415.693 301.589 415 302.797C414.302 304.005 413.526 305.162 412.677 306.271C411.828 307.375 410.911 308.422 409.927 309.406C408.937 310.391 407.896 311.313 406.786 312.162C405.682 313.011 404.526 313.781 403.318 314.479L225.703 417.021C220.781 419.875 215.474 421.313 209.781 421.328V421.333Z" fill="white"/>
</g>
<defs>
<clipPath id="clip0_83_70">
<rect width="574" height="574" fill="white"/>
</clipPath>
</defs>
</svg>
